<svg width="60" height="60" viewBox="0 0 60 60" fill="none" xmlns="http://www.w3.org/2000/svg">
<rect width="60" height="60" rx="30" fill="#1D2F78"/>
<path d="M38.3335 28.3333H36.6668C36.2248 28.3333 35.8009 28.5089 35.4883 28.8215C35.1758 29.134 35.0002 29.558 35.0002 30C35.0002 30.442 35.1758 30.8659 35.4883 31.1785C35.8009 31.4911 36.2248 31.6667 36.6668 31.6667H38.3335C38.7755 31.6667 39.1994 31.4911 39.512 31.1785C39.8246 30.8659 40.0002 30.442 40.0002 30C40.0002 29.558 39.8246 29.134 39.512 28.8215C39.1994 28.5089 38.7755 28.3333 38.3335 28.3333ZM38.3335 35H36.6668C36.2248 35 35.8009 35.1756 35.4883 35.4882C35.1758 35.8007 35.0002 36.2246 35.0002 36.6667C35.0002 37.1087 35.1758 37.5326 35.4883 37.8452C35.8009 38.1577 36.2248 38.3333 36.6668 38.3333H38.3335C38.7755 38.3333 39.1994 38.1577 39.512 37.8452C39.8246 37.5326 40.0002 37.1087 40.0002 36.6667C40.0002 36.2246 39.8246 35.8007 39.512 35.4882C39.1994 35.1756 38.7755 35 38.3335 35ZM28.3335 25H38.3335C38.7755 25 39.1994 24.8244 39.512 24.5118C39.8246 24.1993 40.0002 23.7754 40.0002 23.3333C40.0002 22.8913 39.8246 22.4674 39.512 22.1548C39.1994 21.8423 38.7755 21.6667 38.3335 21.6667H28.3335C27.8915 21.6667 27.4675 21.8423 27.155 22.1548C26.8424 22.4674 26.6668 22.8913 26.6668 23.3333C26.6668 23.7754 26.8424 24.1993 27.155 24.5118C27.4675 24.8244 27.8915 25 28.3335 25ZM45.0002 15H21.6668C21.2248 15 20.8009 15.1756 20.4883 15.4882C20.1758 15.8007 20.0002 16.2246 20.0002 16.6667V21.6667H15.0002C14.5581 21.6667 14.1342 21.8423 13.8217 22.1548C13.5091 22.4674 13.3335 22.8913 13.3335 23.3333V40C13.3335 41.3261 13.8603 42.5979 14.798 43.5355C15.7356 44.4732 17.0074 45 18.3335 45H40.0002C41.7683 45 43.464 44.2976 44.7142 43.0474C45.9644 41.7971 46.6668 40.1014 46.6668 38.3333V16.6667C46.6668 16.2246 46.4912 15.8007 46.1787 15.4882C45.8661 15.1756 45.4422 15 45.0002 15ZM20.0002 40C20.0002 40.442 19.8246 40.866 19.512 41.1785C19.1994 41.4911 18.7755 41.6667 18.3335 41.6667C17.8915 41.6667 17.4675 41.4911 17.155 41.1785C16.8424 40.866 16.6668 40.442 16.6668 40V25H20.0002V40ZM43.3335 38.3333C43.3335 39.2174 42.9823 40.0652 42.3572 40.6904C41.7321 41.3155 40.8842 41.6667 40.0002 41.6667H23.0335C23.2275 41.1322 23.329 40.5686 23.3335 40V18.3333H43.3335V38.3333ZM28.3335 31.6667H30.0002C30.4422 31.6667 30.8661 31.4911 31.1787 31.1785C31.4912 30.8659 31.6668 30.442 31.6668 30C31.6668 29.558 31.4912 29.134 31.1787 28.8215C30.8661 28.5089 30.4422 28.3333 30.0002 28.3333H28.3335C27.8915 28.3333 27.4675 28.5089 27.155 28.8215C26.8424 29.134 26.6668 29.558 26.6668 30C26.6668 30.442 26.8424 30.8659 27.155 31.1785C27.4675 31.4911 27.8915 31.6667 28.3335 31.6667ZM28.3335 38.3333H30.0002C30.4422 38.3333 30.8661 38.1577 31.1787 37.8452C31.4912 37.5326 31.6668 37.1087 31.6668 36.6667C31.6668 36.2246 31.4912 35.8007 31.1787 35.4882C30.8661 35.1756 30.4422 35 30.0002 35H28.3335C27.8915 35 27.4675 35.1756 27.155 35.4882C26.8424 35.8007 26.6668 36.2246 26.6668 36.6667C26.6668 37.1087 26.8424 37.5326 27.155 37.8452C27.4675 38.1577 27.8915 38.3333 28.3335 38.3333Z" fill="white"/>
</svg>
