<svg width="51" height="51" viewBox="0 0 51 51" fill="none" xmlns="http://www.w3.org/2000/svg">
<rect width="51" height="51" rx="25.5" fill="#3DB1FF"/>
<path d="M26.4802 19.1166C27.83 19.3429 29.0562 19.9804 30.0351 20.9573C31.0141 21.9342 31.6478 23.1579 31.8796 24.5051M26.6863 14.7C29.0872 15.1061 31.2768 16.2424 33.0183 17.9752C34.7597 19.713 35.8932 21.8982 36.3002 24.2942M34.4248 33.8268C34.4248 33.8268 33.1213 35.1071 32.8018 35.4824C32.2815 36.0377 31.6684 36.2999 30.8646 36.2999C30.7873 36.2999 30.7049 36.2999 30.6276 36.2948C29.0974 36.1971 27.6754 35.6007 26.6089 35.0917C23.6928 33.6829 21.1322 31.6828 19.0044 29.1479C17.2475 27.0347 16.0728 25.0809 15.2948 22.9831C14.8156 21.7029 14.6405 20.7054 14.7178 19.7645C14.7693 19.1629 15.0011 18.6641 15.4288 18.2374L17.1856 16.4841C17.4381 16.2476 17.706 16.119 17.9688 16.119C18.2934 16.119 18.5561 16.3144 18.721 16.479C18.7261 16.4841 18.7313 16.4892 18.7364 16.4944C19.0507 16.7875 19.3495 17.0908 19.6638 17.4147C19.8235 17.5793 19.9884 17.7438 20.1533 17.9135L21.5598 19.3171C22.106 19.8621 22.106 20.366 21.5598 20.911C21.4104 21.0601 21.2662 21.2093 21.1167 21.3532C20.684 21.7954 21.0239 21.4561 20.5757 21.8572C20.5654 21.8674 20.5551 21.8726 20.5499 21.8829C20.1068 22.3251 20.1893 22.757 20.282 23.05C20.2872 23.0654 20.2923 23.0809 20.2975 23.0963C20.6633 23.9807 21.1785 24.8136 21.9616 25.8059L21.9668 25.8111C23.3888 27.5592 24.8881 28.9218 26.5419 29.9655C26.7531 30.0992 26.9695 30.2072 27.1756 30.31C27.3611 30.4026 27.5363 30.49 27.6857 30.5825C27.7063 30.5928 27.7269 30.6082 27.7475 30.6185C27.9227 30.7059 28.0875 30.747 28.2576 30.747C28.6852 30.747 28.9531 30.4797 29.0407 30.3923L30.0506 29.3844C30.2258 29.2096 30.504 28.9988 30.8286 28.9988C31.148 28.9988 31.4108 29.1993 31.5705 29.3742C31.5756 29.3793 31.5756 29.3793 31.5808 29.3844L34.4196 32.2175C34.9503 32.7419 34.4248 33.8268 34.4248 33.8268Z" stroke="white" stroke-width="2" stroke-linecap="round" stroke-linejoin="round"/>
</svg>
