<svg width="60" height="60" viewBox="0 0 60 60" fill="none" xmlns="http://www.w3.org/2000/svg">
<rect width="60" height="60" rx="30" fill="#1D2F78"/>
<path d="M46.5002 26.0001C46.1668 25.1667 45.1668 24.8334 44.3335 25.1667L39.5002 27.5L36.0002 24L32.5002 20.5L34.8335 15.6667C35.1668 14.8334 34.8335 13.8334 34.0002 13.5C33.1668 13.1667 32.1668 13.5 31.8335 14.3334L29.3335 19.5L18.6668 21.1667C18.0002 21.3334 17.5002 21.8334 17.3335 22.5L13.3335 41.8334C13.1668 42.3334 13.3335 43 13.8335 43.3334L16.6668 46.1667C17.0002 46.5001 17.5002 46.6667 17.8335 46.6667C18.0002 46.6667 18.0002 46.6667 18.1668 46.6667L37.5002 42.6667C38.1668 42.5001 38.6668 42 38.8335 41.3334L40.5002 30.6667L45.6668 28.1667C46.5002 27.8334 46.8335 26.8334 46.5002 26.0001ZM35.6668 39.6667L19.3335 43L25.5002 36.8334C28.0002 38.0001 31.0002 37 32.1668 34.5C33.3335 32 32.3335 29 29.8335 27.8334C28.0002 27 25.6668 27.3334 24.1668 28.8334C22.6668 30.3334 22.3335 32.6667 23.1668 34.5L17.0002 40.6667L20.3335 24.3334L30.0002 22.6667L33.6668 26.3334L37.3335 30L35.6668 39.6667ZM26.0002 32.3334C26.0002 31.8334 26.1668 31.5 26.5002 31.1667C27.1668 30.5 28.1668 30.5 28.8335 31.1667C29.5002 31.8334 29.5002 32.8334 28.8335 33.5001C28.1668 34.1667 27.1668 34.1667 26.5002 33.5001C26.1668 33.1667 26.0002 32.6667 26.0002 32.3334Z" fill="white"/>
</svg>
