<svg width="25" height="24" viewBox="0 0 25 24" fill="none" xmlns="http://www.w3.org/2000/svg">
<g id="Icon">
<path id="Vector" d="M17.4997 9.1697C17.3123 8.98345 17.0589 8.87891 16.7947 8.87891C16.5305 8.87891 16.2771 8.98345 16.0897 9.1697L12.4997 12.7097L8.9597 9.1697C8.77234 8.98345 8.51889 8.87891 8.2547 8.87891C7.99052 8.87891 7.73707 8.98345 7.5497 9.1697C7.45598 9.26266 7.38158 9.37326 7.33081 9.49512C7.28004 9.61698 7.25391 9.74769 7.25391 9.8797C7.25391 10.0117 7.28004 10.1424 7.33081 10.2643C7.38158 10.3861 7.45598 10.4967 7.5497 10.5897L11.7897 14.8297C11.8827 14.9234 11.9933 14.9978 12.1151 15.0486C12.237 15.0994 12.3677 15.1255 12.4997 15.1255C12.6317 15.1255 12.7624 15.0994 12.8843 15.0486C13.0061 14.9978 13.1167 14.9234 13.2097 14.8297L17.4997 10.5897C17.5934 10.4967 17.6678 10.3861 17.7186 10.2643C17.7694 10.1424 17.7955 10.0117 17.7955 9.8797C17.7955 9.74769 17.7694 9.61698 17.7186 9.49512C17.6678 9.37326 17.5934 9.26266 17.4997 9.1697Z" fill="#172254"/>
</g>
</svg>
