<svg width="225" height="66" viewBox="0 0 225 66" fill="none" xmlns="http://www.w3.org/2000/svg">
<path d="M88.7238 23.6864C89.6707 23.6864 90.536 23.8215 91.3196 24.0916C92.1033 24.3617 92.7645 24.6741 93.3032 25.0286V28.4981C92.7155 28.1267 92.087 27.7805 91.4176 27.4598C90.7482 27.139 89.9891 26.9786 89.1401 26.9786C88.7157 26.9786 88.2912 27.0461 87.8667 27.1812C87.4586 27.3163 87.1157 27.5189 86.8382 27.789C86.577 28.0591 86.4464 28.4052 86.4464 28.8273C86.4464 29.3844 86.6831 29.8065 87.1565 30.0935C87.63 30.3805 88.2096 30.6676 88.8953 30.9546L90.9033 31.8156C92.0461 32.3221 92.8869 32.9383 93.4257 33.6643C93.9644 34.3903 94.2338 35.2176 94.2338 36.1461C94.2338 37.1591 93.9481 38.0539 93.3767 38.8305C92.8216 39.5903 92.0706 40.1896 91.1237 40.6286C90.1932 41.0676 89.1565 41.287 88.0137 41.287C87.0504 41.287 86.128 41.1182 85.2464 40.7806C84.3648 40.4429 83.5975 40.0293 82.9445 39.5396V36.0702C83.6628 36.6104 84.4546 37.0663 85.3199 37.4377C86.1852 37.8091 87.1076 37.9948 88.0871 37.9948C88.7728 37.9948 89.3605 37.8598 89.8503 37.5896C90.3401 37.3026 90.585 36.8805 90.585 36.3234C90.585 35.8844 90.3809 35.5299 89.9728 35.2598C89.5809 34.9728 89.1483 34.7364 88.6749 34.5507L86.1525 33.5377C84.8791 33.0312 84.0138 32.3728 83.5567 31.5624C83.1159 30.7351 82.8955 29.8234 82.8955 28.8273C82.8955 27.7974 83.1649 26.9026 83.7036 26.1429C84.2587 25.3663 84.9771 24.7669 85.8586 24.3448C86.7402 23.9059 87.6953 23.6864 88.7238 23.6864Z" fill="white"/>
<path d="M105.361 23.6357C106.389 23.6357 107.279 23.7877 108.03 24.0916C108.781 24.3786 109.434 24.7754 109.989 25.2818V28.8273C109.597 28.5234 109.189 28.228 108.764 27.9409C108.34 27.6539 107.858 27.4176 107.32 27.2318C106.797 27.0461 106.177 26.9533 105.458 26.9533C104.479 26.9533 103.589 27.1981 102.789 27.6877C101.989 28.1773 101.353 28.8357 100.879 29.663C100.406 30.4903 100.169 31.4357 100.169 32.4994C100.169 33.5461 100.406 34.4916 100.879 35.3357C101.353 36.163 101.989 36.8215 102.789 37.3111C103.589 37.7838 104.479 38.0202 105.458 38.0202C106.552 38.0202 107.467 37.8513 108.201 37.5137C108.952 37.1591 109.63 36.7286 110.234 36.2221V39.6409C109.679 40.1643 108.985 40.5864 108.152 40.9072C107.32 41.2111 106.389 41.363 105.361 41.363C104.185 41.363 103.075 41.152 102.03 40.7299C100.985 40.2909 100.063 39.6831 99.2628 38.9065C98.4628 38.113 97.8343 37.176 97.3772 36.0955C96.9201 35.015 96.6915 33.8163 96.6915 32.4994C96.6915 31.1825 96.9201 29.9838 97.3772 28.9033C97.8343 27.8228 98.4628 26.8942 99.2628 26.1176C100.063 25.3241 100.985 24.7163 102.03 24.2942C103.075 23.8552 104.185 23.6357 105.361 23.6357Z" fill="white"/>
<path d="M120.822 24.0156C121.589 24.0156 122.34 24.1254 123.075 24.3448C123.809 24.5643 124.471 24.902 125.058 25.3578C125.662 25.8137 126.136 26.3877 126.479 27.0799C126.838 27.7552 127.017 28.5656 127.017 29.5111C127.017 30.5072 126.772 31.3682 126.283 32.0942C125.809 32.8033 125.181 33.3604 124.397 33.7656C123.613 34.1539 122.764 34.3818 121.85 34.4494L127.752 40.9831H123.271L117.565 34.0442V40.9831H114.161V24.0156H120.822ZM117.565 27.3078V31.5877C117.957 31.7228 118.389 31.8325 118.863 31.9169C119.352 31.9844 119.842 32.0182 120.332 32.0182C121.312 32.0182 122.087 31.8156 122.658 31.4104C123.246 30.9883 123.54 30.3974 123.54 29.6377C123.54 28.8104 123.23 28.2195 122.609 27.865C122.005 27.4935 121.263 27.3078 120.381 27.3078H117.565Z" fill="white"/>
<path d="M139.711 37.8176V40.9831H130.773V37.8176H133.54V27.1812H130.773V24.0156H139.711V27.1812H136.944V37.8176H139.711Z" fill="white"/>
<path d="M151.524 24.0156C152.291 24.0156 153.042 24.1507 153.777 24.4208C154.511 24.6909 155.173 25.0877 155.76 25.6111C156.364 26.1344 156.838 26.7676 157.181 27.5104C157.54 28.2364 157.719 29.0721 157.719 30.0176C157.719 31.1656 157.434 32.187 156.862 33.0818C156.307 33.9598 155.564 34.652 154.634 35.1585C153.703 35.665 152.691 35.9182 151.597 35.9182C150.863 35.9182 150.201 35.8422 149.614 35.6903C149.026 35.5383 148.536 35.3611 148.144 35.1585V40.9831H144.74V24.0156H151.524ZM148.144 27.3078V32.3221C148.503 32.4741 148.936 32.6091 149.442 32.7273C149.965 32.8286 150.495 32.8792 151.034 32.8792C152.014 32.8792 152.789 32.6007 153.36 32.0435C153.948 31.4695 154.242 30.7942 154.242 30.0176C154.242 29.1228 153.915 28.4474 153.262 27.9916C152.609 27.5357 151.842 27.3078 150.961 27.3078H148.144Z" fill="white"/>
<path d="M173.621 24.0156V27.1812H168.381V40.9072H165.001V27.1812H159.761V24.0156H173.621Z" fill="white"/>
<path d="M187.76 30.9039V33.7656H180.512V37.8682H188.715V40.9831H177.108V24.0156H188.715V27.0546H180.512V30.9039H187.76Z" fill="white"/>
<path d="M200.16 24.0156C200.928 24.0156 201.679 24.1254 202.413 24.3448C203.148 24.5643 203.809 24.902 204.397 25.3578C205.001 25.8137 205.474 26.3877 205.817 27.0799C206.176 27.7552 206.356 28.5656 206.356 29.5111C206.356 30.5072 206.111 31.3682 205.621 32.0942C205.148 32.8033 204.519 33.3604 203.736 33.7656C202.952 34.1539 202.103 34.3818 201.189 34.4494L207.091 40.9831H202.609L196.903 34.0442V40.9831H193.499V24.0156H200.16ZM196.903 27.3078V31.5877C197.295 31.7228 197.728 31.8325 198.201 31.9169C198.691 31.9844 199.181 32.0182 199.671 32.0182C200.65 32.0182 201.426 31.8156 201.997 31.4104C202.585 30.9883 202.879 30.3974 202.879 29.6377C202.879 28.8104 202.568 28.2195 201.948 27.865C201.344 27.4935 200.601 27.3078 199.72 27.3078H196.903Z" fill="white"/>
<path d="M217.36 23.889L225.001 40.9831H221.009L219.76 37.8176H213.271L212.022 40.9831H208.03L215.671 23.889H217.36ZM216.528 29.6377L214.471 34.8292H218.585L216.528 29.6377Z" fill="white"/>
<mask id="mask0_6173_5577" style="mask-type:luminance" maskUnits="userSpaceOnUse" x="0" y="0" width="65" height="66">
<path d="M32.1828 65.0445C49.9569 65.0445 64.3656 50.4838 64.3656 32.5222C64.3656 14.5607 49.9569 0 32.1828 0C14.4087 0 0 14.5607 0 32.5222C0 50.4838 14.4087 65.0445 32.1828 65.0445Z" fill="white"/>
</mask>
<g mask="url(#mask0_6173_5577)">
<path d="M32.1828 65.0445C49.9569 65.0445 64.3656 50.4838 64.3656 32.5222C64.3656 14.5607 49.9569 0 32.1828 0C14.4087 0 0 14.5607 0 32.5222C0 50.4838 14.4087 65.0445 32.1828 65.0445Z" fill="white"/>
<path d="M-4.43164 36.8286C6.22795 36.7478 34.0702 54.019 36.3458 80.0591C37.2934 79.8203 70.9547 62.516 70.9547 62.516C64.4433 39.8731 57.4138 21.8128 25.993 16.634C25.993 16.634 10.4594 23.7884 -4.43164 36.8286Z" fill="#A7A7A7"/>
<path d="M5.58447 23.1162C15.9468 25.6438 38.8273 49.2086 34.8014 75.0315C35.7781 75.0315 72.582 66.4705 72.582 66.4705C71.6847 42.9084 69.1875 23.666 39.9399 10.9595C39.9399 10.9595 23.1549 14.1038 5.58447 23.1162Z" fill="#D2D2D2"/>
<path d="M38.8442 50.0532H46.1584C46.5506 50.0532 46.8689 50.3749 46.8689 50.7712V55.4444H38.1338V50.7711C38.1338 50.3749 38.4521 50.0532 38.8442 50.0532Z" fill="#29282D"/>
<path d="M38.647 53.3323H46.3572C49.9242 53.3323 52.8201 56.2587 52.8201 59.8633V64.5381C52.8201 65.519 52.032 66.3154 51.0613 66.3154H33.9428C32.9722 66.3154 32.1841 65.519 32.1841 64.5381V59.8633C32.1841 56.2587 35.08 53.3323 38.647 53.3323Z" fill="#55535B"/>
<path d="M43.8194 55.4446H37.4974C36.4091 55.4446 35.5269 56.3361 35.5269 57.4359C35.5269 58.5356 36.4091 59.4272 37.4974 59.4272H43.8194C44.9077 59.4272 45.79 58.5356 45.79 57.4359C45.79 56.3361 44.9077 55.4446 43.8194 55.4446Z" fill="#79787F"/>
</g>
<path d="M61.3957 1.83285C53.496 16.0811 47.0651 30.7115 43.4272 46.6998C42.5008 44.499 39.6841 40.0091 40.1902 36.5069C40.3511 35.3856 41.3456 32.008 42.8863 27.9375C44.2842 24.2186 46.1526 19.9385 48.0554 16.2162C50.428 11.5366 52.8302 7.75069 53.9675 6.65481C57.0074 3.67814 61.3975 1.81788 61.3957 1.83285Z" fill="#3DB1FF"/>
<path d="M43.1479 46.9464C43.1479 45.4334 49.4016 46.2203 50.5305 44.3535C50.2842 47.2367 43.5273 46.6145 43.0776 47.942L43.1479 46.9464Z" fill="#3DB1FF"/>
<path d="M52.7908 40.5429C50.7622 44.333 43.6689 44.1836 43.0776 47.3187C46.1002 31.1227 52.2995 15.6776 61.3951 1.83276C61.3793 1.83858 60.2805 7.57689 61.1342 11.6104C61.1576 11.721 61.1188 11.8505 61.1023 11.9872C61.1022 11.9871 61.1035 11.9909 61.1031 11.9969C60.9318 13.4108 60.1167 15.983 59.1494 19.0482C59.1483 19.0506 59.1482 19.0506 59.1471 19.053C58.0675 22.4388 56.8248 26.4332 55.8001 30.0951C55.7428 30.2917 55.6887 30.4894 55.6324 30.6861C55.2688 31.9875 54.9281 33.24 54.6164 34.3916C53.8012 37.4118 53.1895 39.7532 52.7908 40.5429Z" fill="#3DB1FF"/>
<path d="M48.454 28.972C47.3223 32.2465 46.2865 35.5565 45.3496 38.8939C46.2449 34.4788 41.7552 31.4129 42.8861 27.9376C44.2839 24.2188 46.1524 19.9386 48.0552 16.2163C46.4751 19.7143 49.8221 24.973 48.454 28.972Z" fill="#2F9AE2"/>
<path d="M59.1495 19.048C59.1483 19.0504 59.1484 19.0505 59.1472 19.0528C57.0896 23.404 51.0308 22.4891 49.6094 24.5741C50.6205 22.005 51.7175 19.4686 52.8992 16.9691C54.1943 14.8404 59.6084 16.2304 61.1026 11.9871C61.1026 11.9871 61.1032 11.9905 61.1025 11.9963C60.9323 13.4109 60.1185 15.9835 59.1495 19.048Z" fill="#2F9AE2"/>
<path d="M54.6169 34.3918C51.8498 37.1736 45.796 37.9946 44.8525 39.89C44.9664 39.234 45.0854 38.5788 45.2097 37.9245C45.2396 37.7671 45.2698 37.6098 45.3003 37.4525C45.322 37.3943 45.3487 37.3374 45.3842 37.2802C46.5788 35.1486 54.2497 34.314 55.6328 30.6863C55.2693 31.9877 54.9286 33.2401 54.6169 34.3918Z" fill="#2F9AE2"/>
<path d="M55.7365 11.3416C55.0539 11.8993 48.6206 23.0919 45.2343 35.5031C41.4105 47.7711 40.6338 61.2576 41.1601 63.0934C41.5128 60.8716 42.6341 47.7582 46.3274 35.721C49.6077 23.556 55.4601 12.4671 55.7365 11.3416Z" fill="#86BBFC"/>
</svg>
