<svg width="25" height="24" viewBox="0 0 25 24" fill="none" xmlns="http://www.w3.org/2000/svg">
<g id="shopping-cart">
<path id="Vector" d="M10.5 20C9.96956 20 9.46085 19.7893 9.08578 19.4142C8.71071 19.0391 8.49999 18.5304 8.49999 18C8.49999 17.4696 8.71071 16.9609 9.08578 16.5858C9.46085 16.2107 9.96956 16 10.5 16C11.0304 16 11.5391 16.2107 11.9142 16.5858C12.2893 16.9609 12.5 17.4696 12.5 18C12.5 18.5304 12.2893 19.0391 11.9142 19.4142C11.5391 19.7893 11.0304 20 10.5 20ZM17.5 20C16.9696 20 16.4609 19.7893 16.0858 19.4142C15.7107 19.0391 15.5 18.5304 15.5 18C15.5 17.4696 15.7107 16.9609 16.0858 16.5858C16.4609 16.2107 16.9696 16 17.5 16C18.0304 16 18.5391 16.2107 18.9142 16.5858C19.2893 16.9609 19.5 17.4696 19.5 18C19.5 18.5304 19.2893 19.0391 18.9142 19.4142C18.5391 19.7893 18.0304 20 17.5 20ZM4.46199 5.923C4.21236 5.91495 3.97563 5.81012 3.80189 5.63068C3.62815 5.45125 3.53101 5.21127 3.53101 4.9615C3.53101 4.71173 3.62815 4.47175 3.80189 4.29232C3.97563 4.11288 4.21236 4.00805 4.46199 4H5.61299C6.51499 4 7.29499 4.626 7.49099 5.506L8.74399 11.148C8.93999 12.028 9.71999 12.654 10.622 12.654H18.134L19.576 6.884H10.231C9.9837 6.87272 9.75028 6.76654 9.57928 6.58755C9.40827 6.40857 9.31285 6.17055 9.31285 5.923C9.31285 5.67545 9.40827 5.43743 9.57928 5.25845C9.75028 5.07946 9.9837 4.97328 10.231 4.962H19.576C19.8683 4.96191 20.1568 5.02848 20.4196 5.15663C20.6823 5.28479 20.9124 5.47116 21.0923 5.70158C21.2722 5.93201 21.3972 6.20041 21.4578 6.4864C21.5184 6.77238 21.513 7.06842 21.442 7.352L20 13.12C19.896 13.5362 19.6559 13.9057 19.3178 14.1697C18.9797 14.4337 18.563 14.5771 18.134 14.577H10.622C9.74679 14.5771 8.89772 14.2787 8.21501 13.7311C7.5323 13.1835 7.05678 12.4194 6.86699 11.565L5.61299 5.923H4.46199Z" fill="white"/>
</g>
</svg>
