<svg width="51" height="51" viewBox="0 0 51 51" fill="none" xmlns="http://www.w3.org/2000/svg">
<rect width="51" height="51" rx="25.5" fill="#3DB1FF"/>
<path d="M25.5002 28.2L24.844 28.9546C25.2203 29.2818 25.7801 29.2818 26.1564 28.9546L25.5002 28.2ZM19.6984 29.0408C20.2297 28.8899 20.538 28.3369 20.3872 27.8057C20.2363 27.2744 19.6833 26.966 19.152 27.1169L19.6984 29.0408ZM31.8484 27.1169C31.3171 26.966 30.7641 27.2744 30.6132 27.8057C30.4624 28.3369 30.7707 28.8899 31.302 29.0408L31.8484 27.1169ZM30.9002 19.9826H29.9002C29.9002 20.625 29.6474 21.4071 29.177 22.2763C28.7138 23.1321 28.0837 23.9925 27.4331 24.7704C26.7853 25.5449 26.1347 26.217 25.6447 26.6964C25.4003 26.9355 25.1973 27.1251 25.0567 27.254C24.9864 27.3183 24.9318 27.3675 24.8955 27.3998C24.8773 27.416 24.8637 27.428 24.855 27.4357C24.8507 27.4395 24.8476 27.4422 24.8457 27.4439C24.8448 27.4447 24.8442 27.4452 24.8439 27.4454C24.8438 27.4456 24.8437 27.4456 24.8437 27.4456C24.8437 27.4456 24.8438 27.4455 24.8438 27.4455C24.8439 27.4454 24.844 27.4453 25.5002 28.2C26.1564 28.9546 26.1565 28.9544 26.1567 28.9543C26.1568 28.9542 26.157 28.954 26.1572 28.9539C26.1575 28.9536 26.1579 28.9532 26.1585 28.9527C26.1595 28.9518 26.1608 28.9507 26.1625 28.9492C26.1658 28.9463 26.1705 28.9422 26.1763 28.9371C26.1881 28.9267 26.2048 28.9119 26.2262 28.8929C26.269 28.8548 26.3304 28.7995 26.4077 28.7287C26.5624 28.5869 26.7814 28.3822 27.0432 28.1261C27.5657 27.6149 28.2651 26.8931 28.9673 26.0535C29.6667 25.2172 30.3866 24.2433 30.9359 23.2282C31.478 22.2265 31.9002 21.101 31.9002 19.9826H30.9002ZM25.5002 28.2C26.1564 27.4453 26.1565 27.4454 26.1566 27.4455C26.1566 27.4455 26.1567 27.4456 26.1567 27.4456C26.1567 27.4456 26.1566 27.4456 26.1565 27.4454C26.1562 27.4452 26.1556 27.4447 26.1547 27.4439C26.1528 27.4422 26.1497 27.4395 26.1454 27.4357C26.1367 27.428 26.1231 27.416 26.1049 27.3998C26.0686 27.3675 26.014 27.3183 25.9437 27.254C25.8031 27.1251 25.6001 26.9355 25.3557 26.6964C24.8657 26.217 24.2151 25.5449 23.5673 24.7704C22.9167 23.9925 22.2866 23.1321 21.8234 22.2763C21.353 21.4071 21.1002 20.625 21.1002 19.9826H20.1002H19.1002C19.1002 21.101 19.5224 22.2265 20.0645 23.2282C20.6138 24.2433 21.3337 25.2172 22.0331 26.0535C22.7353 26.8931 23.4347 27.6149 23.9572 28.1261C24.219 28.3822 24.438 28.5869 24.5926 28.7287C24.67 28.7995 24.7314 28.8548 24.7742 28.8929C24.7956 28.9119 24.8123 28.9267 24.824 28.9371C24.8299 28.9422 24.8345 28.9463 24.8379 28.9492C24.8396 28.9507 24.8409 28.9518 24.8419 28.9527C24.8424 28.9532 24.8429 28.9536 24.8432 28.9539C24.8434 28.954 24.8436 28.9542 24.8437 28.9543C24.8439 28.9544 24.844 28.9546 25.5002 28.2ZM20.1002 19.9826H21.1002C21.1002 17.6379 23.0493 15.7 25.5002 15.7V14.7V13.7C21.9864 13.7 19.1002 16.4922 19.1002 19.9826H20.1002ZM25.5002 14.7V15.7C27.9511 15.7 29.9002 17.6379 29.9002 19.9826H30.9002H31.9002C31.9002 16.4922 29.014 13.7 25.5002 13.7V14.7ZM36.3002 31.8H35.3002C35.3002 32.0729 35.1717 32.4235 34.7497 32.8392C34.3242 33.2583 33.6572 33.6818 32.7523 34.0589C30.9469 34.8111 28.3835 35.3 25.5002 35.3V36.3V37.3C28.5816 37.3 31.4181 36.7814 33.5216 35.905C34.5711 35.4677 35.4857 34.9215 36.1533 34.2639C36.8243 33.6029 37.3002 32.7696 37.3002 31.8H36.3002ZM25.5002 36.3V35.3C22.6169 35.3 20.0534 34.8111 18.2481 34.0589C17.3432 33.6818 16.6762 33.2583 16.2507 32.8392C15.8287 32.4235 15.7002 32.0729 15.7002 31.8H14.7002H13.7002C13.7002 32.7696 14.1761 33.6029 14.8471 34.2639C15.5147 34.9215 16.4293 35.4677 17.4788 35.905C19.5823 36.7814 22.4188 37.3 25.5002 37.3V36.3ZM14.7002 31.8H15.7002C15.7002 31.463 15.9033 30.995 16.6036 30.4552C17.2939 29.9231 18.3453 29.425 19.6984 29.0408L19.4252 28.0788L19.152 27.1169C17.6528 27.5426 16.3417 28.1318 15.3826 28.8711C14.4335 29.6027 13.7002 30.5902 13.7002 31.8H14.7002ZM31.5752 28.0788L31.302 29.0408C32.655 29.425 33.7065 29.9231 34.3968 30.4552C35.0971 30.995 35.3002 31.463 35.3002 31.8H36.3002H37.3002C37.3002 30.5902 36.5669 29.6027 35.6178 28.8711C34.6586 28.1318 33.3476 27.5426 31.8484 27.1169L31.5752 28.0788Z" fill="white"/>
</svg>
