<svg width="154" height="46" viewBox="0 0 154 46" fill="none" xmlns="http://www.w3.org/2000/svg">
<path d="M60.7265 16.3983C61.3746 16.3983 61.9668 16.4919 62.5032 16.6789C63.0395 16.8659 63.4921 17.0821 63.8608 17.3276V19.7295C63.4585 19.4724 63.0283 19.2328 62.5702 19.0107C62.1121 18.7886 61.5925 18.6776 61.0114 18.6776C60.7209 18.6776 60.4304 18.7243 60.1398 18.8178C59.8605 18.9113 59.6258 19.0516 59.4359 19.2386C59.2571 19.4256 59.1677 19.6652 59.1677 19.9574C59.1677 20.3432 59.3297 20.6354 59.6538 20.8341C59.9778 21.0328 60.3745 21.2315 60.8438 21.4302L62.2182 22.0263C63.0004 22.3769 63.5759 22.8035 63.9446 23.3061C64.3134 23.8087 64.4977 24.3815 64.4977 25.0243C64.4977 25.7256 64.3022 26.3451 63.9111 26.8828C63.5312 27.4087 63.0172 27.8237 62.3691 28.1276C61.7321 28.4315 61.0226 28.5834 60.2404 28.5834C59.5811 28.5834 58.9498 28.4665 58.3464 28.2328C57.743 27.999 57.2178 27.7126 56.7708 27.3737V24.9717C57.2625 25.3457 57.8044 25.6613 58.3967 25.9185C58.9889 26.1756 59.6202 26.3042 60.2907 26.3042C60.76 26.3042 61.1623 26.2107 61.4975 26.0237C61.8327 25.825 62.0003 25.5328 62.0003 25.147C62.0003 24.8432 61.8606 24.5977 61.5813 24.4107C61.3131 24.212 61.017 24.0483 60.6929 23.9198L58.9665 23.2185C58.095 22.8678 57.5027 22.412 57.1899 21.8509C56.8882 21.2782 56.7373 20.647 56.7373 19.9574C56.7373 19.2444 56.9217 18.625 57.2904 18.099C57.6703 17.5613 58.162 17.1464 58.7654 16.8542C59.3688 16.5503 60.0225 16.3983 60.7265 16.3983Z" fill="white"/>
<path d="M72.1133 16.3633C72.8173 16.3633 73.4263 16.4685 73.9403 16.6789C74.4543 16.8776 74.9013 17.1522 75.2812 17.5029V19.9574C75.013 19.747 74.7337 19.5425 74.4432 19.3438C74.1526 19.1451 73.823 18.9815 73.4542 18.8529C73.0967 18.7243 72.6721 18.66 72.1804 18.66C71.5099 18.66 70.901 18.8295 70.3534 19.1685C69.8059 19.5074 69.3701 19.9633 69.0461 20.536C68.722 21.1087 68.56 21.7633 68.56 22.4996C68.56 23.2243 68.722 23.8789 69.0461 24.4633C69.3701 25.036 69.8059 25.4919 70.3534 25.8308C70.901 26.1581 71.5099 26.3217 72.1804 26.3217C72.9291 26.3217 73.5548 26.2048 74.0576 25.9711C74.5717 25.7256 75.0354 25.4276 75.4488 25.0769V27.4438C75.0689 27.8061 74.594 28.0983 74.0241 28.3204C73.4542 28.5308 72.8173 28.636 72.1133 28.636C71.3088 28.636 70.549 28.4899 69.8338 28.1977C69.1187 27.8938 68.4873 27.473 67.9398 26.9354C67.3923 26.386 66.9621 25.7373 66.6492 24.9893C66.3363 24.2412 66.1799 23.4113 66.1799 22.4996C66.1799 21.588 66.3363 20.7581 66.6492 20.01C66.9621 19.262 67.3923 18.6191 67.9398 18.0815C68.4873 17.5321 69.1187 17.1113 69.8338 16.8191C70.549 16.5152 71.3088 16.3633 72.1133 16.3633Z" fill="white"/>
<path d="M82.6957 16.6263C83.2209 16.6263 83.7349 16.7022 84.2377 16.8542C84.7406 17.0061 85.1931 17.2399 85.5954 17.5555C86.0088 17.8711 86.3329 18.2685 86.5675 18.7477C86.8134 19.2152 86.9363 19.7763 86.9363 20.4308C86.9363 21.1204 86.7687 21.7165 86.4334 22.2191C86.1094 22.71 85.6792 23.0957 85.1428 23.3763C84.6065 23.6451 84.0254 23.8029 83.3997 23.8496L87.4391 28.373H84.3718L80.4665 23.5691V28.373H78.1366V16.6263H82.6957ZM80.4665 18.9055V21.8685C80.7346 21.962 81.0307 22.038 81.3548 22.0964C81.69 22.1432 82.0252 22.1665 82.3605 22.1665C83.0309 22.1665 83.5617 22.0263 83.9528 21.7457C84.355 21.4535 84.5562 21.0444 84.5562 20.5185C84.5562 19.9457 84.3439 19.5367 83.9193 19.2912C83.5058 19.0341 82.9974 18.9055 82.394 18.9055H80.4665Z" fill="white"/>
<path d="M95.6246 26.1815V28.373H89.5068V26.1815H91.4008V18.8178H89.5068V16.6263H95.6246V18.8178H93.7306V26.1815H95.6246Z" fill="white"/>
<path d="M103.71 16.6263C104.235 16.6263 104.749 16.7198 105.252 16.9068C105.754 17.0938 106.207 17.3685 106.609 17.7308C107.023 18.0932 107.347 18.5315 107.581 19.0457C107.827 19.5483 107.95 20.1269 107.95 20.7815C107.95 21.5763 107.755 22.2834 107.363 22.9029C106.984 23.5107 106.475 23.9899 105.838 24.3406C105.201 24.6912 104.508 24.8665 103.76 24.8665C103.257 24.8665 102.804 24.8139 102.402 24.7087C102 24.6035 101.665 24.4808 101.396 24.3406V28.373H99.0667V16.6263H103.71ZM101.396 18.9055V22.3769C101.642 22.4821 101.938 22.5756 102.285 22.6574C102.642 22.7276 103.006 22.7626 103.374 22.7626C104.045 22.7626 104.576 22.5698 104.967 22.1841C105.369 21.7867 105.57 21.3191 105.57 20.7815C105.57 20.162 105.347 19.6944 104.9 19.3789C104.453 19.0633 103.927 18.9055 103.324 18.9055H101.396Z" fill="white"/>
<path d="M118.834 16.6263V18.8178H115.247V28.3204H112.934V18.8178H109.347V16.6263H118.834Z" fill="white"/>
<path d="M128.511 21.3951V23.3763H123.55V26.2165H129.165V28.373H121.22V16.6263H129.165V18.7302H123.55V21.3951H128.511Z" fill="white"/>
<path d="M136.999 16.6263C137.524 16.6263 138.038 16.7022 138.541 16.8542C139.043 17.0061 139.496 17.2399 139.898 17.5555C140.312 17.8711 140.636 18.2685 140.87 18.7477C141.116 19.2152 141.239 19.7763 141.239 20.4308C141.239 21.1204 141.072 21.7165 140.736 22.2191C140.412 22.71 139.982 23.0957 139.446 23.3763C138.909 23.6451 138.328 23.8029 137.703 23.8496L141.742 28.373H138.675L134.769 23.5691V28.373H132.44V16.6263H136.999ZM134.769 18.9055V21.8685C135.038 21.962 135.334 22.038 135.658 22.0964C135.993 22.1432 136.328 22.1665 136.663 22.1665C137.334 22.1665 137.865 22.0263 138.256 21.7457C138.658 21.4535 138.859 21.0444 138.859 20.5185C138.859 19.9457 138.647 19.5367 138.222 19.2912C137.809 19.0341 137.3 18.9055 136.697 18.9055H134.769Z" fill="white"/>
<path d="M148.771 16.5386L154 28.373H151.268L150.414 26.1815H145.972L145.117 28.373H142.385L147.614 16.5386H148.771ZM148.201 20.5185L146.793 24.1126H149.609L148.201 20.5185Z" fill="white"/>
<mask id="mask0_6188_6427" style="mask-type:luminance" maskUnits="userSpaceOnUse" x="0" y="0" width="45" height="46">
<path d="M22.0274 45.0308C34.1927 45.0308 44.0547 34.9503 44.0547 22.5154C44.0547 10.0805 34.1927 0 22.0274 0C9.86198 0 0 10.0805 0 22.5154C0 34.9503 9.86198 45.0308 22.0274 45.0308Z" fill="white"/>
</mask>
<g mask="url(#mask0_6188_6427)">
<path d="M22.0274 45.0308C34.1927 45.0308 44.0547 34.9503 44.0547 22.5154C44.0547 10.0805 34.1927 0 22.0274 0C9.86198 0 0 10.0805 0 22.5154C0 34.9503 9.86198 45.0308 22.0274 45.0308Z" fill="white"/>
<path d="M-3.0332 25.4967C4.2627 25.4408 23.3192 37.3978 24.8767 55.4255C25.5253 55.2602 48.5646 43.2803 48.5646 43.2803C44.1079 27.6044 39.2966 15.1012 17.7908 11.5159C17.7908 11.5159 7.15887 16.4689 -3.0332 25.4967Z" fill="#A7A7A7"/>
<path d="M3.82227 16.0036C10.9147 17.7535 26.5751 34.0676 23.8197 51.945C24.4881 51.945 49.6784 46.0181 49.6784 46.0181C49.0642 29.7059 47.355 16.3843 27.3367 7.5874C27.3367 7.5874 15.8482 9.76422 3.82227 16.0036Z" fill="#D2D2D2"/>
<path d="M26.5868 34.6523H31.593C31.8614 34.6523 32.0793 34.8751 32.0793 35.1494V38.3847H26.1006V35.1494C26.1006 34.8751 26.3185 34.6523 26.5868 34.6523Z" fill="#29282D"/>
<path d="M26.4518 36.9226H31.729C34.1704 36.9226 36.1525 38.9486 36.1525 41.4441V44.6805C36.1525 45.3596 35.6131 45.9109 34.9487 45.9109H23.2321C22.5677 45.9109 22.0283 45.3596 22.0283 44.6805V41.4441C22.0283 38.9486 24.0104 36.9226 26.4518 36.9226Z" fill="#55535B"/>
<path d="M29.9922 38.3848H25.6651C24.9203 38.3848 24.3164 39.002 24.3164 39.7634C24.3164 40.5247 24.9203 41.1419 25.6651 41.1419H29.9922C30.7371 41.1419 31.341 40.5247 31.341 39.7634C31.341 39.002 30.7371 38.3848 29.9922 38.3848Z" fill="#79787F"/>
</g>
<path d="M42.0221 1.26886C36.6151 11.133 32.2136 21.2617 29.7236 32.3306C29.0896 30.807 27.1617 27.6986 27.5081 25.274C27.6182 24.4977 28.2989 22.1593 29.3534 19.3413C30.3102 16.7667 31.589 13.8035 32.8914 11.2265C34.5153 7.98685 36.1594 5.36582 36.9379 4.60714C39.0185 2.54637 42.0233 1.25849 42.0221 1.26886Z" fill="#3DB1FF"/>
<path d="M29.5325 32.5013C29.5325 31.4539 33.8127 31.9987 34.5854 30.7063C34.4169 32.7024 29.7922 32.2716 29.4844 33.1906L29.5325 32.5013Z" fill="#3DB1FF"/>
<path d="M36.1325 28.0681C34.744 30.692 29.8891 30.5886 29.4844 32.7591C31.5532 21.5465 35.7962 10.8537 42.0217 1.2688C42.0108 1.27283 41.2588 5.2455 41.8431 8.03796C41.8591 8.11448 41.8326 8.20416 41.8212 8.29878C41.8212 8.29874 41.8221 8.30134 41.8218 8.30552C41.7046 9.28436 41.1467 11.0651 40.4846 13.1872C40.4838 13.1888 40.4838 13.1889 40.483 13.1905C39.7441 15.5345 38.8936 18.2998 38.1922 20.835C38.1529 20.9712 38.1159 21.108 38.0774 21.2442C37.8286 22.1452 37.5954 23.0123 37.382 23.8096C36.824 25.9004 36.4054 27.5214 36.1325 28.0681Z" fill="#3DB1FF"/>
<path d="M33.1644 20.0574C32.3898 22.3244 31.6808 24.6159 31.0396 26.9264C31.6524 23.8698 28.5794 21.7472 29.3534 19.3413C30.3102 16.7667 31.589 13.8036 32.8914 11.2266C31.8099 13.6482 34.1007 17.2889 33.1644 20.0574Z" fill="#2F9AE2"/>
<path d="M40.4848 13.1872C40.484 13.1888 40.484 13.1889 40.4832 13.1905C39.0749 16.2028 34.9279 15.5694 33.9551 17.0129C34.6471 15.2343 35.398 13.4784 36.2068 11.748C37.0932 10.2742 40.7988 11.2365 41.8215 8.29883C41.8216 8.29883 41.822 8.30121 41.8215 8.30524C41.705 9.28456 41.148 11.0656 40.4848 13.1872Z" fill="#2F9AE2"/>
<path d="M37.3824 23.8095C35.4884 25.7354 31.345 26.3037 30.6992 27.6159C30.7771 27.1618 30.8586 26.7082 30.9437 26.2552C30.9641 26.1462 30.9848 26.0373 31.0057 25.9284C31.0205 25.8881 31.0388 25.8488 31.0631 25.8092C31.8807 24.3335 37.1311 23.7556 38.0777 21.2441C37.8289 22.1451 37.5957 23.0122 37.3824 23.8095Z" fill="#2F9AE2"/>
<path d="M38.1489 7.85181C37.6817 8.23794 33.2785 15.9866 30.9608 24.5791C28.3436 33.0722 27.8119 42.4091 28.1722 43.68C28.4136 42.1418 29.181 33.0633 31.7089 24.7299C33.9541 16.3079 37.9597 8.63101 38.1489 7.85181Z" fill="#86BBFC"/>
</svg>
