<svg width="50" height="50" viewBox="0 0 50 50" fill="none" xmlns="http://www.w3.org/2000/svg">
<rect width="50" height="50" rx="25" fill="white"/>
<path d="M35 20.239C35.0008 20.1074 34.9756 19.977 34.9258 19.8551C34.876 19.7333 34.8027 19.6225 34.71 19.529L30.47 15.289C30.3766 15.1964 30.2658 15.123 30.1439 15.0733C30.0221 15.0235 29.8916 14.9983 29.76 14.999C29.6284 14.9983 29.4979 15.0235 29.3761 15.0733C29.2543 15.123 29.1435 15.1964 29.05 15.289L26.22 18.119L15.29 29.049C15.1973 29.1425 15.124 29.2533 15.0742 29.3751C15.0245 29.497 14.9993 29.6274 15 29.759L15 33.999C15 34.2643 15.1054 34.5186 15.2929 34.7061C15.4804 34.8937 15.7348 34.999 16 34.999H20.24C20.3799 35.0067 20.5199 34.9848 20.6508 34.9348C20.7818 34.8848 20.9007 34.8079 21 34.709L31.87 23.779L34.71 20.999C34.8013 20.9021 34.8757 20.7906 34.93 20.669C34.9397 20.5893 34.9397 20.5087 34.93 20.429C34.9347 20.3825 34.9347 20.3356 34.93 20.289L35 20.239ZM19.83 32.999H17V30.169L26.93 20.239L29.76 23.069L19.83 32.999ZM31.17 21.659L28.34 18.829L29.76 17.419L32.58 20.239L31.17 21.659Z" fill="#172254"/>
</svg>
