<svg width="24" height="25" viewBox="0 0 24 25" fill="none" xmlns="http://www.w3.org/2000/svg">
<path d="M10.0002 20.5C9.4698 20.5 8.9611 20.2893 8.58602 19.9142C8.21095 19.5391 8.00024 19.0304 8.00024 18.5C8.00024 17.9696 8.21095 17.4609 8.58602 17.0858C8.9611 16.7107 9.4698 16.5 10.0002 16.5C10.5307 16.5 11.0394 16.7107 11.4145 17.0858C11.7895 17.4609 12.0002 17.9696 12.0002 18.5C12.0002 19.0304 11.7895 19.5391 11.4145 19.9142C11.0394 20.2893 10.5307 20.5 10.0002 20.5ZM17.0002 20.5C16.4698 20.5 15.9611 20.2893 15.586 19.9142C15.211 19.5391 15.0002 19.0304 15.0002 18.5C15.0002 17.9696 15.211 17.4609 15.586 17.0858C15.9611 16.7107 16.4698 16.5 17.0002 16.5C17.5307 16.5 18.0394 16.7107 18.4145 17.0858C18.7895 17.4609 19.0002 17.9696 19.0002 18.5C19.0002 19.0304 18.7895 19.5391 18.4145 19.9142C18.0394 20.2893 17.5307 20.5 17.0002 20.5ZM3.96224 6.423C3.7126 6.41495 3.47588 6.31012 3.30214 6.13068C3.12839 5.95125 3.03125 5.71127 3.03125 5.4615C3.03125 5.21173 3.12839 4.97175 3.30214 4.79232C3.47588 4.61288 3.7126 4.50805 3.96224 4.5H5.11324C6.01524 4.5 6.79524 5.126 6.99124 6.006L8.24424 11.648C8.44024 12.528 9.22024 13.154 10.1222 13.154H17.6342L19.0762 7.384H9.73124C9.48395 7.37272 9.25053 7.26654 9.07952 7.08755C8.90852 6.90857 8.81309 6.67055 8.81309 6.423C8.81309 6.17545 8.90852 5.93743 9.07952 5.75845C9.25053 5.57946 9.48395 5.47328 9.73124 5.462H19.0762C19.3686 5.46191 19.6571 5.52848 19.9198 5.65663C20.1826 5.78479 20.4126 5.97116 20.5925 6.20158C20.7724 6.43201 20.8974 6.70041 20.958 6.9864C21.0186 7.27238 21.0132 7.56842 20.9422 7.852L19.5002 13.62C19.3963 14.0362 19.1561 14.4057 18.818 14.6697C18.4799 14.9337 18.0632 15.0771 17.6342 15.077H10.1222C9.24703 15.0771 8.39796 14.7787 7.71525 14.2311C7.03254 13.6835 6.55703 12.9194 6.36724 12.065L5.11324 6.423H3.96224Z" fill="white"/>
</svg>
