<svg width="60" height="60" viewBox="0 0 60 60" fill="none" xmlns="http://www.w3.org/2000/svg">
<rect width="60" height="60" rx="30" fill="#1D2F78"/>
<path d="M38.9002 19.0999C38.5046 19.0999 38.1179 19.2172 37.789 19.437C37.4601 19.6567 37.2038 19.9691 37.0524 20.3346C36.901 20.7 36.8614 21.1021 36.9386 21.4901C37.0158 21.8781 37.2062 22.2344 37.4859 22.5141C37.7657 22.7938 38.122 22.9843 38.51 23.0615C38.8979 23.1387 39.3001 23.0991 39.6655 22.9477C40.031 22.7963 40.3433 22.54 40.5631 22.2111C40.7829 21.8822 40.9002 21.4955 40.9002 21.0999C40.9002 20.5695 40.6894 20.0608 40.3144 19.6857C39.9393 19.3106 39.4306 19.0999 38.9002 19.0999ZM46.5668 23.1333C46.5344 21.7504 46.2754 20.3823 45.8002 19.0833C45.3764 17.9718 44.7168 16.9654 43.8668 16.1333C43.0415 15.279 42.0328 14.6235 40.9168 14.2166C39.6213 13.7269 38.2516 13.4619 36.8668 13.4333C35.1002 13.3333 34.5335 13.3333 30.0002 13.3333C25.4668 13.3333 24.9002 13.3333 23.1335 13.4333C21.7487 13.4619 20.3791 13.7269 19.0835 14.2166C17.9696 14.6277 16.9617 15.2825 16.1335 16.1333C15.2792 16.9585 14.6238 17.9673 14.2168 19.0833C13.7271 20.3788 13.4622 21.7485 13.4335 23.1333C13.3335 24.8999 13.3335 25.4666 13.3335 29.9999C13.3335 34.5333 13.3335 35.0999 13.4335 36.8666C13.4622 38.2513 13.7271 39.621 14.2168 40.9166C14.6238 42.0325 15.2792 43.0413 16.1335 43.8666C16.9617 44.7173 17.9696 45.3722 19.0835 45.7832C20.3791 46.273 21.7487 46.5379 23.1335 46.5666C24.9002 46.6666 25.4668 46.6666 30.0002 46.6666C34.5335 46.6666 35.1002 46.6666 36.8668 46.5666C38.2516 46.5379 39.6213 46.273 40.9168 45.7832C42.0328 45.3763 43.0415 44.7209 43.8668 43.8666C44.7206 43.0376 45.3807 42.0302 45.8002 40.9166C46.2754 39.6176 46.5344 38.2494 46.5668 36.8666C46.5668 35.0999 46.6668 34.5333 46.6668 29.9999C46.6668 25.4666 46.6668 24.8999 46.5668 23.1333ZM43.5668 36.6666C43.5547 37.7245 43.3631 38.7728 43.0002 39.7666C42.7341 40.4919 42.3066 41.1473 41.7502 41.6833C41.2096 42.2341 40.5555 42.6606 39.8335 42.9333C38.8397 43.2962 37.7914 43.4878 36.7335 43.4999C35.0668 43.5833 34.4502 43.5999 30.0668 43.5999C25.6835 43.5999 25.0668 43.5999 23.4002 43.4999C22.3016 43.5205 21.2078 43.3513 20.1668 42.9999C19.4765 42.7134 18.8524 42.2879 18.3335 41.7499C17.7803 41.2145 17.3582 40.5586 17.1002 39.8333C16.6933 38.8252 16.4676 37.7532 16.4335 36.6666C16.4335 34.9999 16.3335 34.3833 16.3335 29.9999C16.3335 25.6166 16.3335 24.9999 16.4335 23.3333C16.441 22.2517 16.6384 21.1798 17.0168 20.1666C17.3102 19.4631 17.7606 18.836 18.3335 18.3333C18.8399 17.7602 19.4656 17.3051 20.1668 16.9999C21.1827 16.6333 22.2535 16.4417 23.3335 16.4333C25.0002 16.4333 25.6168 16.3333 30.0002 16.3333C34.3835 16.3333 35.0002 16.3333 36.6668 16.4333C37.7248 16.4454 38.773 16.637 39.7668 16.9999C40.5242 17.281 41.204 17.738 41.7502 18.3333C42.2963 18.8452 42.7231 19.4711 43.0002 20.1666C43.3706 21.1815 43.5623 22.2529 43.5668 23.3333C43.6502 24.9999 43.6668 25.6166 43.6668 29.9999C43.6668 34.3833 43.6502 34.9999 43.5668 36.6666ZM30.0002 21.4499C28.3098 21.4532 26.6584 21.9575 25.2546 22.8989C23.8507 23.8404 22.7575 25.1769 22.1129 26.7395C21.4683 28.3021 21.3014 30.0207 21.6332 31.6781C21.9649 33.3356 22.7806 34.8575 23.977 36.0515C25.1734 37.2456 26.6968 38.0583 28.3549 38.3868C30.013 38.7154 31.7313 38.5451 33.2926 37.8975C34.8539 37.2499 36.1883 36.154 37.127 34.7483C38.0658 33.3426 38.5668 31.6902 38.5668 29.9999C38.569 28.8751 38.3488 27.7609 37.9189 26.7215C37.489 25.6821 36.8578 24.7379 36.0616 23.9433C35.2655 23.1487 34.3201 22.5194 33.2798 22.0915C32.2396 21.6636 31.125 21.4455 30.0002 21.4499ZM30.0002 35.5499C28.9025 35.5499 27.8294 35.2244 26.9167 34.6146C26.0041 34.0047 25.2927 33.1379 24.8726 32.1238C24.4526 31.1097 24.3427 29.9938 24.5568 28.9172C24.771 27.8406 25.2995 26.8517 26.0757 26.0755C26.8519 25.2993 27.8408 24.7707 28.9174 24.5566C29.994 24.3424 31.1099 24.4523 32.1241 24.8724C33.1382 25.2925 34.005 26.0038 34.6148 26.9165C35.2247 27.8292 35.5502 28.9022 35.5502 29.9999C35.5502 30.7288 35.4066 31.4505 35.1277 32.1238C34.8488 32.7972 34.44 33.409 33.9246 33.9244C33.4092 34.4397 32.7974 34.8485 32.1241 35.1274C31.4507 35.4064 30.729 35.5499 30.0002 35.5499Z" fill="white"/>
</svg>
