<svg width="60" height="60" viewBox="0 0 60 60" fill="none" xmlns="http://www.w3.org/2000/svg">
<rect width="60" height="60" rx="30" fill="#1D2F78"/>
<path d="M41.6668 20.8334H36.6668V19.1667C36.6668 17.8407 36.14 16.5689 35.2024 15.6312C34.2647 14.6935 32.9929 14.1667 31.6668 14.1667H28.3335C27.0074 14.1667 25.7356 14.6935 24.798 15.6312C23.8603 16.5689 23.3335 17.8407 23.3335 19.1667V20.8334H18.3335C17.0074 20.8334 15.7356 21.3602 14.798 22.2979C13.8603 23.2356 13.3335 24.5073 13.3335 25.8334V40.8334C13.3335 42.1595 13.8603 43.4313 14.798 44.3689C15.7356 45.3066 17.0074 45.8334 18.3335 45.8334H41.6668C42.9929 45.8334 44.2647 45.3066 45.2024 44.3689C46.14 43.4313 46.6668 42.1595 46.6668 40.8334V25.8334C46.6668 24.5073 46.14 23.2356 45.2024 22.2979C44.2647 21.3602 42.9929 20.8334 41.6668 20.8334ZM26.6668 19.1667C26.6668 18.7247 26.8424 18.3008 27.155 17.9882C27.4675 17.6757 27.8915 17.5001 28.3335 17.5001H31.6668C32.1089 17.5001 32.5328 17.6757 32.8453 17.9882C33.1579 18.3008 33.3335 18.7247 33.3335 19.1667V20.8334H26.6668V19.1667ZM43.3335 40.8334C43.3335 41.2754 43.1579 41.6994 42.8453 42.0119C42.5328 42.3245 42.1089 42.5001 41.6668 42.5001H18.3335C17.8915 42.5001 17.4675 42.3245 17.155 42.0119C16.8424 41.6994 16.6668 41.2754 16.6668 40.8334V32.4167H21.6668V34.1667C21.6668 34.6088 21.8424 35.0327 22.155 35.3453C22.4675 35.6578 22.8915 35.8334 23.3335 35.8334C23.7755 35.8334 24.1994 35.6578 24.512 35.3453C24.8246 35.0327 25.0002 34.6088 25.0002 34.1667V32.4167H35.0002V34.1667C35.0002 34.6088 35.1758 35.0327 35.4883 35.3453C35.8009 35.6578 36.2248 35.8334 36.6668 35.8334C37.1089 35.8334 37.5328 35.6578 37.8453 35.3453C38.1579 35.0327 38.3335 34.6088 38.3335 34.1667V32.4167H43.3335V40.8334ZM43.3335 29.1667H16.6668V25.8334C16.6668 25.3914 16.8424 24.9675 17.155 24.6549C17.4675 24.3423 17.8915 24.1667 18.3335 24.1667H41.6668C42.1089 24.1667 42.5328 24.3423 42.8453 24.6549C43.1579 24.9675 43.3335 25.3914 43.3335 25.8334V29.1667Z" fill="white"/>
</svg>
