<svg width="80" height="81" viewBox="0 0 80 81" fill="none" xmlns="http://www.w3.org/2000/svg">
<rect y="0.5" width="80" height="80" rx="40" fill="#3DB1FF"/>
<path d="M58.3783 41.6029C58.3783 40.7745 57.7068 40.1029 56.8783 40.1029C56.0499 40.1029 55.3783 40.7745 55.3783 41.6029H58.3783ZM39.0642 25.4559C39.8926 25.4559 40.5642 24.7843 40.5642 23.9559C40.5642 23.1275 39.8926 22.4559 39.0642 22.4559V25.4559ZM49.4713 41.6029C49.4713 40.7745 48.7997 40.1029 47.9713 40.1029C47.1428 40.1029 46.4713 40.7745 46.4713 41.6029H49.4713ZM39.0642 34.2794C39.8926 34.2794 40.5642 33.6078 40.5642 32.7794C40.5642 31.951 39.8926 31.2794 39.0642 31.2794V34.2794ZM47.9927 34.5139C48.5812 33.9309 48.5857 32.9812 48.0026 32.3926C47.4196 31.8041 46.4699 31.7996 45.8814 32.3826L47.9927 34.5139ZM38.0085 40.1816C37.42 40.7646 37.4155 41.7144 37.9985 42.3029C38.5815 42.8914 39.5313 42.8959 40.1198 42.3129L38.0085 40.1816ZM58.75 27.9892L59.8057 29.0548C60.2104 28.6538 60.3531 28.0581 60.1738 27.5173C59.9946 26.9764 59.5243 26.5838 58.9602 26.504L58.75 27.9892ZM51.6645 35.0083L51.1941 36.4326C51.7298 36.6095 52.3194 36.4709 52.7201 36.0739L51.6645 35.0083ZM45.3662 28.7691L44.3105 27.7034C43.904 28.1062 43.762 28.7051 43.9445 29.2475L45.3662 28.7691ZM52.4517 21.75L53.9364 21.5359C53.8555 20.9752 53.4656 20.5078 52.9285 20.3278C52.3913 20.1477 51.7986 20.2857 51.3961 20.6844L52.4517 21.75ZM46.9408 33.4485L45.5191 33.9268C45.6697 34.3743 46.0221 34.7248 46.4704 34.8728L46.9408 33.4485ZM53.239 27.2093L51.7544 27.4234C51.8495 28.0832 52.3688 28.6011 53.0288 28.6945L53.239 27.2093ZM56.8783 41.6029H55.3783C55.3783 50.5074 48.0876 57.75 39.0642 57.75V59.25V60.75C49.7177 60.75 58.3783 52.1909 58.3783 41.6029H56.8783ZM39.0642 59.25V57.75C30.0407 57.75 22.75 50.5074 22.75 41.6029H21.25H19.75C19.75 52.1909 28.4106 60.75 39.0642 60.75V59.25ZM21.25 41.6029H22.75C22.75 32.6985 30.0407 25.4559 39.0642 25.4559V23.9559V22.4559C28.4106 22.4559 19.75 31.015 19.75 41.6029H21.25ZM47.9713 41.6029H46.4713C46.4713 45.6343 43.1684 48.9265 39.0642 48.9265V50.4265V51.9265C44.7985 51.9265 49.4713 47.3178 49.4713 41.6029H47.9713ZM39.0642 50.4265V48.9265C34.96 48.9265 31.6571 45.6343 31.6571 41.6029H30.1571H28.6571C28.6571 47.3178 33.3299 51.9265 39.0642 51.9265V50.4265ZM30.1571 41.6029H31.6571C31.6571 37.5716 34.96 34.2794 39.0642 34.2794V32.7794V31.2794C33.3299 31.2794 28.6571 35.8881 28.6571 41.6029H30.1571ZM46.937 33.4483L45.8814 32.3826L38.0085 40.1816L39.0642 41.2473L40.1198 42.3129L47.9927 34.5139L46.937 33.4483ZM58.75 27.9892L57.6944 26.9235L50.6088 33.9426L51.6645 35.0083L52.7201 36.0739L59.8057 29.0548L58.75 27.9892ZM45.3662 28.7691L46.4218 29.8347L53.5074 22.8156L52.4517 21.75L51.3961 20.6844L44.3105 27.7034L45.3662 28.7691ZM51.6645 35.0083L52.1348 33.5839L47.4111 32.0241L46.9408 33.4485L46.4704 34.8728L51.1941 36.4326L51.6645 35.0083ZM46.9408 33.4485L48.3624 32.9701L46.7879 28.2907L45.3662 28.7691L43.9445 29.2475L45.5191 33.9268L46.9408 33.4485ZM52.4517 21.75L50.9671 21.9641L51.7544 27.4234L53.239 27.2093L54.7237 26.9952L53.9364 21.5359L52.4517 21.75ZM53.239 27.2093L53.0288 28.6945L58.5398 29.4744L58.75 27.9892L58.9602 26.504L53.4492 25.7241L53.239 27.2093Z" fill="#172254"/>
</svg>
